<mxfile host="app.diagrams.net" agent="Mozilla/5.0 (Windows NT 10.0; Win64; x64) AppleWebKit/537.36 (KHTML, like Gecko) Chrome/141.0.0.0 Safari/537.36" version="28.2.8">
  <diagram name="Seite-1" id="9rxZMv8Mnba7JgW3MB76">
    <mxGraphModel dx="1869" dy="527" grid="1" gridSize="10" guides="1" tooltips="1" connect="1" arrows="1" fold="1" page="1" pageScale="1" pageWidth="827" pageHeight="1169" math="0" shadow="0">
      <root>
        <mxCell id="0" />
        <mxCell id="1" parent="0" />
        <mxCell id="coI7dVelv7amHDnmwIpa-9" style="edgeStyle=orthogonalEdgeStyle;rounded=0;orthogonalLoop=1;jettySize=auto;html=1;entryX=0;entryY=0.5;entryDx=0;entryDy=0;" parent="1" source="coI7dVelv7amHDnmwIpa-1" target="coI7dVelv7amHDnmwIpa-8" edge="1">
          <mxGeometry relative="1" as="geometry" />
        </mxCell>
        <mxCell id="coI7dVelv7amHDnmwIpa-1" value="Open Application&amp;nbsp;" style="html=1;whiteSpace=wrap;" parent="1" vertex="1">
          <mxGeometry x="-70" y="390" width="110" height="50" as="geometry" />
        </mxCell>
        <mxCell id="coI7dVelv7amHDnmwIpa-7" style="edgeStyle=orthogonalEdgeStyle;rounded=0;orthogonalLoop=1;jettySize=auto;html=1;entryX=0;entryY=0.5;entryDx=0;entryDy=0;" parent="1" source="coI7dVelv7amHDnmwIpa-4" target="coI7dVelv7amHDnmwIpa-1" edge="1">
          <mxGeometry relative="1" as="geometry" />
        </mxCell>
        <mxCell id="coI7dVelv7amHDnmwIpa-4" value="" style="ellipse;html=1;shape=startState;fillColor=#000000;strokeColor=#ff0000;" parent="1" vertex="1">
          <mxGeometry x="-140" y="400" width="30" height="30" as="geometry" />
        </mxCell>
        <mxCell id="coI7dVelv7amHDnmwIpa-21" style="edgeStyle=orthogonalEdgeStyle;rounded=0;orthogonalLoop=1;jettySize=auto;html=1;entryX=0;entryY=0.5;entryDx=0;entryDy=0;" parent="1" source="coI7dVelv7amHDnmwIpa-8" target="coI7dVelv7amHDnmwIpa-16" edge="1">
          <mxGeometry relative="1" as="geometry" />
        </mxCell>
        <mxCell id="D1l2B--wdHFb3AU0LAzI-19" style="edgeStyle=orthogonalEdgeStyle;rounded=0;orthogonalLoop=1;jettySize=auto;html=1;" edge="1" parent="1" source="coI7dVelv7amHDnmwIpa-8">
          <mxGeometry relative="1" as="geometry">
            <mxPoint x="155" y="490" as="targetPoint" />
          </mxGeometry>
        </mxCell>
        <mxCell id="coI7dVelv7amHDnmwIpa-8" value="Animate frogs" style="html=1;whiteSpace=wrap;" parent="1" vertex="1">
          <mxGeometry x="90" y="380" width="130" height="70" as="geometry" />
        </mxCell>
        <mxCell id="D1l2B--wdHFb3AU0LAzI-1" style="edgeStyle=orthogonalEdgeStyle;rounded=0;orthogonalLoop=1;jettySize=auto;html=1;" edge="1" parent="1" source="coI7dVelv7amHDnmwIpa-16" target="coI7dVelv7amHDnmwIpa-26">
          <mxGeometry relative="1" as="geometry">
            <mxPoint x="640" y="130" as="targetPoint" />
          </mxGeometry>
        </mxCell>
        <mxCell id="coI7dVelv7amHDnmwIpa-16" value="Set a randomized timer" style="html=1;whiteSpace=wrap;" parent="1" vertex="1">
          <mxGeometry x="294" y="380" width="160" height="70" as="geometry" />
        </mxCell>
        <mxCell id="D1l2B--wdHFb3AU0LAzI-9" style="edgeStyle=orthogonalEdgeStyle;rounded=0;orthogonalLoop=1;jettySize=auto;html=1;entryX=0.5;entryY=1;entryDx=0;entryDy=0;" edge="1" parent="1" source="coI7dVelv7amHDnmwIpa-26" target="D1l2B--wdHFb3AU0LAzI-6">
          <mxGeometry relative="1" as="geometry" />
        </mxCell>
        <mxCell id="coI7dVelv7amHDnmwIpa-26" value="Consider closesed frog to curser" style="html=1;whiteSpace=wrap;" parent="1" vertex="1">
          <mxGeometry x="550" y="385" width="130" height="60" as="geometry" />
        </mxCell>
        <mxCell id="D1l2B--wdHFb3AU0LAzI-4" style="edgeStyle=orthogonalEdgeStyle;rounded=0;orthogonalLoop=1;jettySize=auto;html=1;" edge="1" parent="1" source="D1l2B--wdHFb3AU0LAzI-3" target="D1l2B--wdHFb3AU0LAzI-5">
          <mxGeometry relative="1" as="geometry">
            <mxPoint x="290" y="90" as="targetPoint" />
          </mxGeometry>
        </mxCell>
        <mxCell id="D1l2B--wdHFb3AU0LAzI-3" value="Animate tongue" style="rounded=0;whiteSpace=wrap;html=1;" vertex="1" parent="1">
          <mxGeometry x="380" y="200" width="120" height="60" as="geometry" />
        </mxCell>
        <mxCell id="D1l2B--wdHFb3AU0LAzI-11" style="edgeStyle=orthogonalEdgeStyle;rounded=0;orthogonalLoop=1;jettySize=auto;html=1;entryX=0;entryY=0.5;entryDx=0;entryDy=0;" edge="1" parent="1" source="D1l2B--wdHFb3AU0LAzI-5" target="coI7dVelv7amHDnmwIpa-16">
          <mxGeometry relative="1" as="geometry" />
        </mxCell>
        <mxCell id="D1l2B--wdHFb3AU0LAzI-13" style="edgeStyle=orthogonalEdgeStyle;rounded=0;orthogonalLoop=1;jettySize=auto;html=1;entryX=1;entryY=0.5;entryDx=0;entryDy=0;" edge="1" parent="1" source="D1l2B--wdHFb3AU0LAzI-5" target="D1l2B--wdHFb3AU0LAzI-12">
          <mxGeometry relative="1" as="geometry" />
        </mxCell>
        <mxCell id="D1l2B--wdHFb3AU0LAzI-5" value="With tongue attached move curser to the frog" style="rounded=0;whiteSpace=wrap;html=1;" vertex="1" parent="1">
          <mxGeometry x="190" y="200" width="120" height="60" as="geometry" />
        </mxCell>
        <mxCell id="D1l2B--wdHFb3AU0LAzI-7" style="edgeStyle=orthogonalEdgeStyle;rounded=0;orthogonalLoop=1;jettySize=auto;html=1;entryX=1;entryY=0.5;entryDx=0;entryDy=0;" edge="1" parent="1" source="D1l2B--wdHFb3AU0LAzI-6" target="D1l2B--wdHFb3AU0LAzI-3">
          <mxGeometry relative="1" as="geometry" />
        </mxCell>
        <mxCell id="D1l2B--wdHFb3AU0LAzI-6" value="Block user from moving the curser" style="rounded=0;whiteSpace=wrap;html=1;" vertex="1" parent="1">
          <mxGeometry x="555" y="200" width="120" height="60" as="geometry" />
        </mxCell>
        <mxCell id="D1l2B--wdHFb3AU0LAzI-15" style="edgeStyle=orthogonalEdgeStyle;rounded=0;orthogonalLoop=1;jettySize=auto;html=1;entryX=1;entryY=0.5;entryDx=0;entryDy=0;" edge="1" parent="1" source="D1l2B--wdHFb3AU0LAzI-12" target="D1l2B--wdHFb3AU0LAzI-14">
          <mxGeometry relative="1" as="geometry" />
        </mxCell>
        <mxCell id="D1l2B--wdHFb3AU0LAzI-12" value="Move curser to a somewhere random on the desktop&amp;nbsp;" style="rounded=0;whiteSpace=wrap;html=1;" vertex="1" parent="1">
          <mxGeometry x="20" y="200" width="120" height="60" as="geometry" />
        </mxCell>
        <mxCell id="D1l2B--wdHFb3AU0LAzI-14" value="End the blocking of the curser" style="rounded=0;whiteSpace=wrap;html=1;" vertex="1" parent="1">
          <mxGeometry x="-140" y="200" width="120" height="60" as="geometry" />
        </mxCell>
        <mxCell id="D1l2B--wdHFb3AU0LAzI-21" style="edgeStyle=orthogonalEdgeStyle;rounded=0;orthogonalLoop=1;jettySize=auto;html=1;" edge="1" parent="1" source="D1l2B--wdHFb3AU0LAzI-16" target="D1l2B--wdHFb3AU0LAzI-22">
          <mxGeometry relative="1" as="geometry">
            <mxPoint x="310" y="630" as="targetPoint" />
          </mxGeometry>
        </mxCell>
        <mxCell id="D1l2B--wdHFb3AU0LAzI-16" value="On click set counter minus on" style="rounded=0;whiteSpace=wrap;html=1;" vertex="1" parent="1">
          <mxGeometry x="95" y="600" width="120" height="60" as="geometry" />
        </mxCell>
        <mxCell id="D1l2B--wdHFb3AU0LAzI-20" style="edgeStyle=orthogonalEdgeStyle;rounded=0;orthogonalLoop=1;jettySize=auto;html=1;entryX=0.5;entryY=0;entryDx=0;entryDy=0;" edge="1" parent="1" source="D1l2B--wdHFb3AU0LAzI-18" target="D1l2B--wdHFb3AU0LAzI-16">
          <mxGeometry relative="1" as="geometry" />
        </mxCell>
        <mxCell id="D1l2B--wdHFb3AU0LAzI-18" value="Set random counter" style="rounded=0;whiteSpace=wrap;html=1;" vertex="1" parent="1">
          <mxGeometry x="95" y="490" width="120" height="60" as="geometry" />
        </mxCell>
        <mxCell id="D1l2B--wdHFb3AU0LAzI-26" style="edgeStyle=orthogonalEdgeStyle;rounded=0;orthogonalLoop=1;jettySize=auto;html=1;entryX=1;entryY=0.5;entryDx=0;entryDy=0;" edge="1" parent="1" source="D1l2B--wdHFb3AU0LAzI-22" target="D1l2B--wdHFb3AU0LAzI-18">
          <mxGeometry relative="1" as="geometry" />
        </mxCell>
        <mxCell id="D1l2B--wdHFb3AU0LAzI-22" value="When counter is 0, last clicked frog explodes in sparkles" style="rounded=0;whiteSpace=wrap;html=1;" vertex="1" parent="1">
          <mxGeometry x="284" y="490" width="170" height="60" as="geometry" />
        </mxCell>
      </root>
    </mxGraphModel>
  </diagram>
</mxfile>
